<svg xmlns="http://www.w3.org/2000/svg" viewBox="0 0 180 180"><rect width="180" height="180" rx="38" fill="#2b2a28"/><g fill="#e8ddc9"><rect x="28" y="96" width="22" height="56"/><rect x="56" y="68" width="28" height="84"/><rect x="90" y="45" width="22" height="107"/><rect x="118" y="79" width="17" height="73"/><rect x="141" y="107" width="11" height="45"/></g><g fill="#2b2a28"><rect x="34" y="107" width="5" height="5"/><rect x="34" y="124" width="5" height="5"/><rect x="62" y="79" width="5" height="5"/><rect x="73" y="79" width="5" height="5"/><rect x="62" y="101" width="5" height="5"/><rect x="73" y="101" width="5" height="5"/><rect x="62" y="124" width="5" height="5"/><rect x="96" y="56" width="5" height="5"/><rect x="96" y="73" width="5" height="5"/><rect x="96" y="90" width="5" height="5"/><rect x="96" y="107" width="5" height="5"/><rect x="96" y="124" width="5" height="5"/><rect x="124" y="90" width="5" height="5"/><rect x="124" y="107" width="5" height="5"/><rect x="124" y="124" width="5" height="5"/></g><rect x="17" y="152" width="146" height="6" fill="#8a6a48"/></svg>
