<svg xmlns="http://www.w3.org/2000/svg" viewBox="0 0 32 32"><rect width="32" height="32" rx="7" fill="#2b2a28"/><g fill="#e8ddc9"><rect x="5" y="17" width="4" height="10"/><rect x="10" y="12" width="5" height="15"/><rect x="16" y="8" width="4" height="19"/><rect x="21" y="14" width="3" height="13"/><rect x="25" y="19" width="2" height="8"/></g><g fill="#2b2a28"><rect x="6" y="19" width="1" height="1"/><rect x="6" y="22" width="1" height="1"/><rect x="11" y="14" width="1" height="1"/><rect x="13" y="14" width="1" height="1"/><rect x="11" y="18" width="1" height="1"/><rect x="13" y="18" width="1" height="1"/><rect x="11" y="22" width="1" height="1"/><rect x="17" y="10" width="1" height="1"/><rect x="17" y="13" width="1" height="1"/><rect x="17" y="16" width="1" height="1"/><rect x="17" y="19" width="1" height="1"/><rect x="17" y="22" width="1" height="1"/><rect x="22" y="16" width="1" height="1"/><rect x="22" y="19" width="1" height="1"/><rect x="22" y="22" width="1" height="1"/></g><rect x="3" y="27" width="26" height="1" fill="#8a6a48"/></svg>
